<?xml version="1.0" standalone="no"?>
<!DOCTYPE svg PUBLIC "-//W3C//DTD SVG 20010904//EN"
 "http://www.w3.org/TR/2001/REC-SVG-20010904/DTD/svg10.dtd">
<svg version="1.0" xmlns="http://www.w3.org/2000/svg"
 width="250.000000pt" height="278.000000pt" viewBox="0 0 250.000000 278.000000"
 preserveAspectRatio="xMidYMid meet">

<g transform="translate(0.000000,278.000000) scale(0.100000,-0.100000)"
fill="#000000" stroke="none">
<path d="M440 2445 c0 -2 72 -296 160 -652 88 -356 177 -717 198 -802 21 -87
43 -156 50 -158 8 -3 61 41 125 103 169 164 571 551 970 934 92 88 124 130
101 130 -3 0 -357 101 -787 225 -721 207 -817 233 -817 220z m209 -81 c85 -25
158 -48 161 -51 5 -5 -229 -232 -240 -233 -3 0 -24 74 -46 165 -23 91 -39 165
-36 165 2 0 75 -21 161 -46z m548 -158 c6 -3 -42 -58 -108 -122 -65 -65 -121
-116 -123 -113 -3 2 -21 69 -41 149 -20 80 -38 152 -41 161 -4 14 23 9 148
-27 84 -24 158 -46 165 -48z m-309 -86 c22 -88 35 -160 30 -160 -8 0 -271 73
-307 86 -9 3 27 44 105 119 65 63 122 114 125 115 4 0 25 -72 47 -160z m476
39 c39 -11 109 -32 156 -46 l85 -26 -125 -118 c-69 -64 -126 -115 -127 -111
-25 81 -78 322 -70 322 5 0 42 -9 81 -21z m-86 -151 c22 -90 40 -163 39 -164
-3 -2 -311 88 -317 93 -5 4 221 232 231 233 4 0 25 -73 47 -162z m571 11 l153
-44 -123 -118 c-67 -65 -126 -114 -129 -110 -7 8 -80 294 -80 314 0 6 6 9 13
6 6 -2 81 -24 166 -48z m-174 -138 c20 -79 34 -145 32 -147 -4 -5 -306 82
-314 90 -4 3 47 57 113 120 95 91 120 111 126 97 4 -9 24 -81 43 -160z m-927
87 c81 -22 150 -44 154 -47 4 -4 -46 -60 -112 -126 -66 -65 -121 -117 -124
-115 -10 11 -82 330 -74 330 5 0 75 -19 156 -42z m415 -119 l148 -42 -123
-117 c-73 -70 -126 -113 -129 -106 -4 6 -21 72 -38 146 -18 74 -35 143 -38
153 -4 15 -1 18 14 13 10 -3 85 -24 166 -47z m-180 -117 c20 -86 37 -162 37
-168 0 -9 -302 70 -320 83 -4 4 231 243 240 243 3 0 22 -71 43 -158z m617 -9
c52 -14 97 -28 99 -30 6 -5 -39 -51 -150 -154 l-97 -89 -37 157 c-21 87 -40
163 -42 170 -3 8 17 6 64 -8 37 -10 111 -31 163 -46z m-223 -115 c22 -90 39
-164 38 -165 -2 -4 -319 88 -325 94 -5 5 230 232 242 233 3 0 24 -73 45 -162z
m-528 -43 c85 -25 156 -46 157 -48 1 -1 -53 -55 -121 -119 l-123 -117 -36 147
c-20 81 -39 155 -42 165 -3 9 -2 17 3 17 4 0 77 -20 162 -45z m454 -131 c53
-15 97 -31 97 -35 0 -3 -54 -57 -119 -118 l-120 -112 -10 38 c-20 78 -71 282
-71 287 0 4 19 -1 223 -60z m-219 -106 c20 -81 36 -152 36 -156 0 -9 -308 74
-320 85 -3 3 49 56 115 118 66 63 123 110 126 107 3 -4 23 -73 43 -154z m-121
-159 c81 -23 147 -45 147 -48 0 -4 -56 -59 -124 -124 -98 -92 -126 -113 -130
-100 -7 24 -76 314 -76 320 0 2 8 2 18 -1 9 -3 83 -24 165 -47z"/>
<path d="M585 788 c-3 -8 -4 -92 -3 -188 3 -157 5 -175 21 -178 15 -3 17 6 17
86 0 97 6 110 64 132 23 8 34 7 52 -5 22 -14 24 -22 24 -103 0 -93 8 -119 34
-109 13 5 16 23 16 97 0 95 -14 142 -45 154 -30 11 -91 6 -111 -9 -10 -8 -22
-15 -26 -15 -4 0 -8 32 -10 72 -2 46 -7 73 -15 76 -7 2 -15 -2 -18 -10z"/>
<path d="M1793 779 c-16 -16 -5 -39 17 -39 23 0 32 13 24 34 -7 19 -25 21 -41
5z"/>
<path d="M387 692 c-38 -39 -39 -52 -5 -52 16 0 18 -10 18 -92 0 -51 4 -99 8
-106 14 -21 67 -31 92 -18 31 15 26 31 -9 32 -47 2 -51 9 -51 99 l0 84 37 3
c27 2 39 8 41 21 3 14 -4 17 -37 17 -37 0 -41 2 -41 25 0 34 -10 32 -53 -13z"/>
<path d="M993 678 c-18 -4 -35 -13 -38 -18 -9 -15 -25 -12 -25 5 0 8 -9 15
-20 15 -19 0 -20 -7 -20 -125 0 -106 3 -127 16 -132 26 -10 34 17 33 101 -2
71 0 81 21 98 12 10 33 18 46 18 26 0 43 25 28 39 -5 5 -23 4 -41 -1z"/>
<path d="M1119 668 c-94 -57 -74 -215 30 -245 65 -19 151 7 138 41 -5 13 -12
14 -32 6 -63 -24 -145 5 -145 51 0 17 8 19 95 19 l95 0 0 28 c0 34 -32 87 -61
102 -33 18 -88 17 -120 -2z m112 -48 c17 -16 28 -34 24 -40 -3 -5 -37 -10 -75
-10 -38 0 -72 5 -75 10 -9 15 50 70 75 70 12 0 35 -13 51 -30z"/>
<path d="M1453 680 c-49 -7 -71 -24 -90 -67 -42 -101 17 -196 122 -196 54 0
111 29 95 48 -8 10 -18 11 -36 4 -62 -23 -144 6 -144 52 0 17 8 19 95 19 l95
0 0 34 c0 66 -65 117 -137 106z m68 -60 c17 -16 28 -34 24 -40 -3 -5 -37 -10
-76 -10 -61 0 -69 2 -69 19 0 23 45 61 72 61 11 0 33 -13 49 -30z"/>
<path d="M1940 668 c-66 -39 -40 -112 48 -138 65 -19 80 -33 61 -56 -10 -12
-25 -15 -64 -11 -27 2 -56 6 -64 8 -8 2 -16 -4 -19 -13 -2 -13 9 -21 48 -32
62 -18 112 -6 142 35 19 25 19 28 4 57 -11 20 -28 34 -53 42 -77 23 -93 32
-93 51 0 26 40 40 95 32 37 -5 45 -3 45 10 0 31 -106 42 -150 15z"/>
<path d="M1788 513 l-3 -168 -29 -5 c-16 -3 -31 -10 -33 -17 -6 -16 34 -35 57
-28 47 15 50 26 50 211 0 167 -1 174 -20 174 -19 0 -20 -8 -22 -167z"/>
<path d="M1654 466 c-10 -26 4 -48 28 -44 17 2 23 10 23 28 0 18 -6 26 -23 28
-13 2 -25 -3 -28 -12z"/>
</g>
</svg>
